# xmcd
#
# Track frame offsets:
#	150
#	13275
#	34905
#	54241
#	75547
#	95474
#	108239
#	136551
#	155727
#	180183
#	210332
#	227422
#	239950
#
# Disc length: 3437 seconds
#
# Revision: 1
# Processed by: cddbd v1.4PL0 Copyright (c) Steve Scherf et al.
# Submitted via: audiograbber 1.82.02
#
DISCID=9a0d6b0d
DTITLE=Canned Heat - Friends In the Can
DYEAR=2003
DGENRE=Blues
TTITLE0=Same Old Games
TTITLE1=Bad Trouble
TTITLE2=Black Coffee
TTITLE3=Getaway
TTITLE4=It Don't Matter
TTITLE5=Let's Work Together
TTITLE6=1, 2, 3 Here We Go Again
TTITLE7=That Fat Cat
TTITLE8=Home To You
TTITLE9=Never Get Out Of These Blues Alive
TTITLE10=Little Wheel
TTITLE11=Let's Work Together(reprise)
TTITLE12=Getaway(Edited Single Version)
EXTD=
EXTT0=
EXTT1=
EXTT2=
EXTT3=
EXTT4=
EXTT5=
EXTT6=
EXTT7=
EXTT8=
EXTT9=
EXTT10=
EXTT11=
EXTT12=
PLAYORDER=
